<svg xmlns="http://www.w3.org/2000/svg" viewBox="0 0 512 512" role="img" aria-labelledby="title"><title>CEAMI Membros</title><defs><linearGradient id="bg" x1="0" y1="0" x2="1" y2="1"><stop stop-color="#ff7a00"/><stop offset="1" stop-color="#e95218"/></linearGradient></defs><rect width="512" height="512" rx="104" fill="url(#bg)"/><g fill="#fff"><path d="M194 86c12 60 43 91 83 120-5-49 2-89 24-121 4 54 33 92 80 111-27 2-52 13-73 31-26 22-42 54-45 94-28-16-48-41-59-76-8 30-9 58-3 84-42-32-62-76-56-132 4-42 21-79 49-111z"/><path d="M270 208c34-7 64-23 91-48-5 42-20 76-46 102-20 20-45 33-75 40 2-39 12-70 30-94z"/></g><text x="256" y="392" text-anchor="middle" fill="#fff" font-family="Arial,Helvetica,sans-serif" font-size="104" font-weight="300" letter-spacing="-5">CEAMI</text><line x1="102" y1="420" x2="410" y2="420" stroke="#fff" stroke-width="4"/><text x="256" y="468" text-anchor="middle" fill="#fff" font-family="Arial,Helvetica,sans-serif" font-size="34" font-weight="600" letter-spacing="8">MEMBROS</text></svg>