<svg xmlns="http://www.w3.org/2000/svg" viewBox="0 0 512 512" role="img" aria-labelledby="title">
<title>CEAMI</title>
<rect width="512" height="512" rx="108" fill="#e95b2a"/>
<g transform="translate(43 22) scale(2.68)" fill="#fff" fill-rule="evenodd">
<path d="M 159 109 L 150 111 L 138 116 L 129 122 L 120 131 L 110 147 L 105 164 L 119 164 L 120 163 L 122 154 L 129 141 L 143 128 L 153 123 L 159 122 Z M 19 44 L 23 58 L 35 83 L 40 97 L 39 106 L 36 109 L 31 109 L 25 102 L 24 92 L 23 91 L 24 90 L 24 85 L 23 85 L 18 98 L 18 116 L 20 122 L 26 132 L 36 140 L 47 144 L 55 144 L 56 145 L 64 144 L 60 137 L 60 130 L 66 112 L 66 101 L 64 95 L 56 83 L 39 69 L 26 56 Z M 28 5 L 25 11 L 22 22 L 22 39 L 24 46 L 30 56 L 41 67 L 49 73 L 64 89 L 68 98 L 69 108 L 63 130 L 63 137 L 64 140 L 68 144 L 71 145 L 81 144 L 91 138 L 98 128 L 104 112 L 105 95 L 108 93 L 111 87 L 113 79 L 116 74 L 121 72 L 129 80 L 130 79 L 131 58 L 127 52 L 119 49 L 104 51 L 91 58 L 85 58 L 76 53 L 76 55 L 82 62 L 80 63 L 63 46 L 60 38 L 60 23 L 57 26 L 53 35 L 53 45 L 54 46 L 53 48 L 45 44 L 36 36 L 30 24 Z M 83 63 L 88 66 L 100 78 L 106 89 L 106 94 L 105 95 L 103 89 L 97 79 L 82 64 Z M 81 63 L 82 62 L 83 63 L 82 64 Z"/>
</g>
</svg>