<svg xmlns="http://www.w3.org/2000/svg" viewBox="0 0 920 300" role="img" aria-labelledby="title desc">
  <title id="title">CEAMI</title><desc id="desc">Comunidade Evangélica Amigo Mais Que Irmão</desc>
  <g fill="none" fill-rule="evenodd">
    <g transform="translate(10 24)">
      <path fill="#fff" d="M50 9c11 34 31 47 59 62-9-28-6-49 6-67 3 37 25 58 58 73-8-28-2-49 18-64-1 30 12 54 39 71-14 8-28 17-40 28-17 16-26 37-29 62-28-11-52-29-72-54C69 96 56 59 50 9Z"/>
      <path fill="#fff" d="M198 82c31-7 58-1 82 18-16 1-28 8-37 20-10 13-15 31-15 52-14-4-28-10-41-18 10-23 14-46 11-72Z"/>
      <path fill="#fff" d="M129 91c-2 39 12 69 42 92-24 11-50 13-77 6-37-10-61-33-71-69 30 8 51-2 64-29 11 24 25 24 42 0Z"/>
    </g>
    <text x="290" y="176" fill="#fff" font-family="Arial,Helvetica,sans-serif" font-size="142" font-weight="300" letter-spacing="8">CEAMI</text>
    <text x="298" y="236" fill="#fff" font-family="Arial,Helvetica,sans-serif" font-size="28" font-weight="400">Comunidade Evangélica Amigo Mais Que Irmão</text>
  </g>
</svg>
